<svg width="213" height="165" viewBox="0 0 213 165" fill="none" xmlns="http://www.w3.org/2000/svg">
<path d="M5 4C5 23.2917 9.0014 42.38 12.2222 61.3333C15.4748 80.4735 17.3354 100.275 19.5556 119.556C20.0536 123.881 20 128.213 20 132.556C20 133.276 20 136.875 20 133.556C20 121.249 20.4539 108.689 16.7778 96.7778C10.7141 77.1316 8 57.6894 8 37.2222C8 31.4074 8 25.5926 8 19.7778C8 17.7795 7.24028 13.3101 8.22222 11.4444C10.0118 8.04421 16.9983 5.56886 20.2222 3.77778C24.679 1.30177 33.2524 0.511296 37.2222 4.22222C43.3764 9.97507 49.7107 18.5434 50 27.2222C50.146 31.6027 51.979 36.1112 50.7778 40.5556C49.5595 45.063 42.7656 50.9421 38.7778 52.7778C30.1798 56.7356 24.1999 59 15 59" stroke="black" stroke-width="3" stroke-linecap="round"/>
<path d="M64 91C64 78.9538 54.3229 80 45 80C34.5013 80 36.3697 107 45.4444 107C57.3014 107 65 98.6083 65 87.1111C65 86.2687 65.1173 89.7175 65.4444 90.4444C67.3335 94.6423 69 98.3396 69 103C69 105.764 69.7629 109 73 109" stroke="black" stroke-width="3" stroke-linecap="round"/>
<path d="M79 72C79.4235 80.8935 81.3409 89.8909 82.2222 98.7778C82.7212 103.809 84.1658 110.225 88.5556 113.444C99.4461 121.431 99 91.5279 99 85.5556C99 83.5741 99 81.5926 99 79.6111C99 73.1704 102.267 92.0724 103.778 98.3333C104.677 102.059 105.928 109.957 108.667 112.944C110.399 114.834 114.649 114 117 114" stroke="black" stroke-width="3" stroke-linecap="round"/>
<path d="M128 46C128 70.5903 124.409 95.0835 125.056 119.667C125.21 125.54 126.265 131.106 127.444 136.833C127.815 138.634 127.418 142.16 129.056 143.389C136.651 149.085 139 132.378 139 128" stroke="black" stroke-width="3" stroke-linecap="round"/>
<path d="M2 82C66.2176 66.7906 132.324 56.5361 198.444 56C199.699 55.9898 220.175 54.6835 207.167 57.3333C176.683 63.543 145.858 66.0265 114.944 69.0556C95.9484 70.9168 76.6935 72.581 57.8889 76C56.2841 76.2918 53.1669 76.4119 52.5556 78.3333C49.2988 88.5688 69.2004 91.5245 74.1111 92.2222C98.8118 95.7319 125.305 94.0668 148.667 84.8889C188.664 69.1755 67.3841 114.949 24.7778 120.556C21.1029 121.039 8.75385 121.558 22.5 120.167C68.3863 115.523 114.066 109.65 159.778 103.556C164.206 102.965 177.013 102.496 172.889 100.778C167.854 98.6799 162.107 98.2381 156.722 98.0556C148.163 97.7654 139.564 98 131 98" stroke="black" stroke-width="3" stroke-linecap="round"/>
<path d="M132 55C129.446 49.0396 119.03 46.6702 113.778 45.3333C96.8429 41.0226 77.8895 41.1618 63.8889 52.9444C55.5718 59.944 45.7564 73.5003 52 84.6667C57.901 95.2204 70.4189 101.283 81.1111 105.833C92.4523 110.659 74.6626 129.001 67.6667 131.333C58.6612 134.335 61.249 111.529 61.4444 108C62.4612 89.639 66.3331 70.6312 71.4444 53C75.5338 38.8939 85 22.784 85 7.66666C85 6.64815 85 5.62963 85 4.61111C85 4.02991 84.3583 5.58511 84.1111 6.11111C79.7717 15.3439 76.4589 25.135 73.5556 34.8889C62.1285 73.2787 62.9644 110.956 67.2222 150.222C67.6889 154.526 68 158.681 68 163" stroke="black" stroke-width="3" stroke-linecap="round"/>
</svg>
